<mxfile host="app.diagrams.net" modified="2022-05-23T16:10:26.756Z" agent="5.0 (Windows NT 10.0; Win64; x64) AppleWebKit/537.36 (KHTML, like Gecko) Chrome/101.0.4951.67 Safari/537.36" etag="mlWpVTIgIJrjOKScQ3dV" version="18.1.1" type="github">
  <diagram id="004SqpFLpuU7DqnlT7bC" name="第 1 页">
    <mxGraphModel dx="1636" dy="611" grid="1" gridSize="10" guides="1" tooltips="1" connect="1" arrows="1" fold="1" page="1" pageScale="1" pageWidth="827" pageHeight="1169" math="0" shadow="0">
      <root>
        <mxCell id="0" />
        <mxCell id="1" parent="0" />
        <mxCell id="DBsSTzPHwaOumbkf3LVX-13" style="edgeStyle=orthogonalEdgeStyle;rounded=0;orthogonalLoop=1;jettySize=auto;html=1;exitX=0.5;exitY=1;exitDx=0;exitDy=0;entryX=0.5;entryY=0;entryDx=0;entryDy=0;" edge="1" parent="1" source="DBsSTzPHwaOumbkf3LVX-1" target="DBsSTzPHwaOumbkf3LVX-9">
          <mxGeometry relative="1" as="geometry" />
        </mxCell>
        <mxCell id="DBsSTzPHwaOumbkf3LVX-14" style="edgeStyle=orthogonalEdgeStyle;rounded=0;orthogonalLoop=1;jettySize=auto;html=1;exitX=0.5;exitY=1;exitDx=0;exitDy=0;entryX=0.5;entryY=0;entryDx=0;entryDy=0;" edge="1" parent="1" source="DBsSTzPHwaOumbkf3LVX-1" target="DBsSTzPHwaOumbkf3LVX-10">
          <mxGeometry relative="1" as="geometry" />
        </mxCell>
        <mxCell id="DBsSTzPHwaOumbkf3LVX-15" style="edgeStyle=orthogonalEdgeStyle;rounded=0;orthogonalLoop=1;jettySize=auto;html=1;exitX=0.5;exitY=1;exitDx=0;exitDy=0;entryX=0.5;entryY=0;entryDx=0;entryDy=0;" edge="1" parent="1" source="DBsSTzPHwaOumbkf3LVX-1" target="DBsSTzPHwaOumbkf3LVX-8">
          <mxGeometry relative="1" as="geometry" />
        </mxCell>
        <mxCell id="DBsSTzPHwaOumbkf3LVX-1" value="预制件&lt;br&gt;普通虾兵模板" style="rounded=0;whiteSpace=wrap;html=1;" vertex="1" parent="1">
          <mxGeometry x="240" y="80" width="120" height="60" as="geometry" />
        </mxCell>
        <mxCell id="DBsSTzPHwaOumbkf3LVX-6" value="" style="shape=flexArrow;endArrow=classic;html=1;rounded=0;" edge="1" parent="1">
          <mxGeometry width="50" height="50" relative="1" as="geometry">
            <mxPoint x="360" y="109.5" as="sourcePoint" />
            <mxPoint x="420" y="109.5" as="targetPoint" />
          </mxGeometry>
        </mxCell>
        <mxCell id="DBsSTzPHwaOumbkf3LVX-7" value="普通虾兵预制件实例" style="ellipse;whiteSpace=wrap;html=1;" vertex="1" parent="1">
          <mxGeometry x="420" y="70" width="120" height="80" as="geometry" />
        </mxCell>
        <mxCell id="DBsSTzPHwaOumbkf3LVX-8" value="预制件变体3&lt;br&gt;快速移动虾兵模板" style="rounded=0;whiteSpace=wrap;html=1;" vertex="1" parent="1">
          <mxGeometry x="400" y="200" width="120" height="60" as="geometry" />
        </mxCell>
        <mxCell id="DBsSTzPHwaOumbkf3LVX-9" value="预制件变体2&lt;br&gt;持刀虾兵模板" style="rounded=0;whiteSpace=wrap;html=1;" vertex="1" parent="1">
          <mxGeometry x="240" y="200" width="120" height="60" as="geometry" />
        </mxCell>
        <mxCell id="DBsSTzPHwaOumbkf3LVX-24" style="edgeStyle=orthogonalEdgeStyle;rounded=0;orthogonalLoop=1;jettySize=auto;html=1;exitX=0.25;exitY=1;exitDx=0;exitDy=0;entryX=0.5;entryY=0;entryDx=0;entryDy=0;" edge="1" parent="1" source="DBsSTzPHwaOumbkf3LVX-10" target="DBsSTzPHwaOumbkf3LVX-22">
          <mxGeometry relative="1" as="geometry" />
        </mxCell>
        <mxCell id="DBsSTzPHwaOumbkf3LVX-10" value="预制件变体1&lt;br&gt;持矛虾兵模板" style="rounded=0;whiteSpace=wrap;html=1;" vertex="1" parent="1">
          <mxGeometry x="80" y="200" width="120" height="60" as="geometry" />
        </mxCell>
        <mxCell id="DBsSTzPHwaOumbkf3LVX-16" value="快速移动虾兵&lt;br&gt;预制件实例" style="ellipse;whiteSpace=wrap;html=1;" vertex="1" parent="1">
          <mxGeometry x="400" y="320" width="120" height="80" as="geometry" />
        </mxCell>
        <mxCell id="DBsSTzPHwaOumbkf3LVX-17" value="持刀虾兵预制件实例" style="ellipse;whiteSpace=wrap;html=1;" vertex="1" parent="1">
          <mxGeometry x="240" y="320" width="120" height="80" as="geometry" />
        </mxCell>
        <mxCell id="DBsSTzPHwaOumbkf3LVX-18" value="持矛虾兵预制件实例" style="ellipse;whiteSpace=wrap;html=1;" vertex="1" parent="1">
          <mxGeometry x="80" y="320" width="120" height="80" as="geometry" />
        </mxCell>
        <mxCell id="DBsSTzPHwaOumbkf3LVX-19" value="" style="shape=flexArrow;endArrow=classic;html=1;rounded=0;" edge="1" parent="1">
          <mxGeometry width="50" height="50" relative="1" as="geometry">
            <mxPoint x="139.5" y="260" as="sourcePoint" />
            <mxPoint x="140" y="320" as="targetPoint" />
          </mxGeometry>
        </mxCell>
        <mxCell id="DBsSTzPHwaOumbkf3LVX-20" value="" style="shape=flexArrow;endArrow=classic;html=1;rounded=0;" edge="1" parent="1">
          <mxGeometry width="50" height="50" relative="1" as="geometry">
            <mxPoint x="459.5" y="260" as="sourcePoint" />
            <mxPoint x="460" y="320" as="targetPoint" />
          </mxGeometry>
        </mxCell>
        <mxCell id="DBsSTzPHwaOumbkf3LVX-21" value="" style="shape=flexArrow;endArrow=classic;html=1;rounded=0;" edge="1" parent="1">
          <mxGeometry width="50" height="50" relative="1" as="geometry">
            <mxPoint x="299.5" y="260" as="sourcePoint" />
            <mxPoint x="300" y="320" as="targetPoint" />
          </mxGeometry>
        </mxCell>
        <mxCell id="DBsSTzPHwaOumbkf3LVX-22" value="预制件变体4&lt;br&gt;持矛持刀虾兵模板" style="rounded=0;whiteSpace=wrap;html=1;" vertex="1" parent="1">
          <mxGeometry x="-80" y="320" width="120" height="60" as="geometry" />
        </mxCell>
        <mxCell id="DBsSTzPHwaOumbkf3LVX-25" value="持矛持刀虾兵&lt;br&gt;预制件实例" style="ellipse;whiteSpace=wrap;html=1;" vertex="1" parent="1">
          <mxGeometry x="-80" y="440" width="120" height="80" as="geometry" />
        </mxCell>
        <mxCell id="DBsSTzPHwaOumbkf3LVX-26" value="" style="shape=flexArrow;endArrow=classic;html=1;rounded=0;" edge="1" parent="1">
          <mxGeometry width="50" height="50" relative="1" as="geometry">
            <mxPoint x="-20.5" y="380" as="sourcePoint" />
            <mxPoint x="-20" y="440" as="targetPoint" />
          </mxGeometry>
        </mxCell>
      </root>
    </mxGraphModel>
  </diagram>
</mxfile>
